<svg width="225" height="225" version="1.1" id="Layer_1" xmlns="http://www.w3.org/2000/svg" xmlns:xlink="http://www.w3.org/1999/xlink" x="0px" y="0px"
     viewBox="0 0 225 225" enable-background="new 0 0 225 225" xml:space="preserve">
<path fill="#FFFFFF" opacity="1.000000" stroke="none"
      d="
M29.000000,226.000000
	C19.675850,226.000000 10.351698,226.000000 1.020661,226.000000
	C1.013774,151.082977 1.013774,76.165939 1.013774,1.000000
	C64.687347,1.000000 128.375015,1.000000 192.344635,1.277649
	C190.918533,3.096204 188.948730,4.429978 187.541061,6.208624
	C159.866806,41.176254 132.250656,76.189880 104.642258,111.209579
	C99.722702,117.449776 99.661240,119.591370 103.991226,126.389503
	C123.825356,157.529358 143.643845,188.679245 163.553192,219.770950
	C165.024109,222.068008 167.168640,223.933746 169.000000,226.000000
	C138.312439,226.000000 107.624878,226.000000 76.595978,225.672150
	C79.963043,223.465515 81.171501,220.387482 81.143562,216.331772
	C81.031288,200.033966 81.019730,183.734314 81.147423,167.436737
	C81.182899,162.908875 80.374016,158.948929 75.734070,157.290894
	C71.058662,155.620163 67.950417,158.262390 65.179771,161.812988
	C52.601215,177.932495 39.916023,193.968796 27.268646,210.034576
	C21.452040,217.423340 21.785316,220.501648 29.000000,226.000000
z"/>
    <path fill="#5757F5" opacity="1.000000" stroke="none"
          d="
M169.468658,226.000000
	C167.168640,223.933746 165.024109,222.068008 163.553192,219.770950
	C143.643845,188.679245 123.825356,157.529358 103.991226,126.389503
	C99.661240,119.591370 99.722702,117.449776 104.642258,111.209579
	C132.250656,76.189880 159.866806,41.176254 187.541061,6.208624
	C188.948730,4.429978 190.918533,3.096204 192.813293,1.277649
	C194.388885,1.000000 195.777786,1.000000 197.779236,1.290394
	C202.586456,3.389181 203.367859,6.876851 203.365234,11.010972
	C203.321915,79.334023 203.300201,147.657166 203.406921,215.980072
	C203.414780,221.005569 201.681122,224.284607 197.000000,226.000000
	C187.979111,226.000000 178.958206,226.000000 169.468658,226.000000
z"/>
    <path fill="#FCFCFF" opacity="1.000000" stroke="none"
          d="
M197.468658,226.000000
	C201.681122,224.284607 203.414780,221.005569 203.406921,215.980072
	C203.300201,147.657166 203.321915,79.334023 203.365234,11.010972
	C203.367859,6.876851 202.586456,3.389181 198.195892,1.290394
	C207.318832,1.000000 216.637680,1.000000 225.951691,1.000006
	C225.946884,76.000015 225.946884,151.000031 225.946884,226.000000
	C216.574951,226.000000 207.256134,226.000000 197.468658,226.000000
z"/>
    <path fill="#5757F5" opacity="1.000000" stroke="none"
          d="
M29.468658,226.000000
	C21.785316,220.501648 21.452040,217.423340 27.268646,210.034576
	C39.916023,193.968796 52.601215,177.932495 65.179771,161.812988
	C67.950417,158.262390 71.058662,155.620163 75.734070,157.290894
	C80.374016,158.948929 81.182899,162.908875 81.147423,167.436737
	C81.019730,183.734314 81.031288,200.033966 81.143562,216.331772
	C81.171501,220.387482 79.963043,223.465515 76.127319,225.672150
	C60.645771,226.000000 45.291542,226.000000 29.468658,226.000000
z"/>
</svg>