<svg width="400" height="400" id="Layer_1" data-name="Layer 1" xmlns="http://www.w3.org/2000/svg" viewBox="0 0 400 400">
  <defs>
    <style>
      .cls-1 {
        fill: #ff7900;
      }

      .cls-1, .cls-2 {
        fill-rule: evenodd;
      }

      .cls-2 {
        fill: #fff;
      }
    </style>
  </defs>
  <title>2</title>
  <g>
    <path class="cls-1" d="M140.1,45.5,106.4,11.8A9.1,9.1,0,0,0,100,9.1H9.1A9.1,9.1,0,0,0,0,18.2V309.1a9.1,9.1,0,0,0,9.1,9.1H190.9v54.5H81.8a9.1,9.1,0,0,0,0,18.2H318.2a9.1,9.1,0,0,0,0-18.2H209.1V318.2H390.9a9.1,9.1,0,0,0,9.1-9.1V54.5a9.1,9.1,0,0,0-9.1-9.1Z"/>
    <path class="cls-1" d="M9.1,372.7a9.1,9.1,0,1,0,9.1,9.1,9.1,9.1,0,0,0-9.1-9.1"/>
    <path class="cls-1" d="M45.5,372.7a9.1,9.1,0,1,0,9.1,9.1,9.1,9.1,0,0,0-9.1-9.1"/>
    <path class="cls-1" d="M355.6,372.7a9.1,9.1,0,1,0,9.1,9.1,9.1,9.1,0,0,0-9.1-9.1"/>
    <path class="cls-1" d="M390.9,372.7a9.1,9.1,0,1,0,9.1,9.1,9.1,9.1,0,0,0-9.1-9.1"/>
    <path class="cls-2" d="M332.1,154.9a11.4,11.4,0,0,0-7.6-2.5H314.3a2.4,2.4,0,0,0-1.7.5,2.2,2.2,0,0,0-.5,1.6v14.6a3,3,0,0,0,.3,1.6,1.4,1.4,0,0,0,1.2.5h11.4a10,10,0,0,0,7.3-2.6,9.1,9.1,0,0,0,2.7-6.8A8.5,8.5,0,0,0,332.1,154.9Zm20.8,20.1a22.3,22.3,0,0,1-10,8.3,36.3,36.3,0,0,1-14.8,2.9H313.3q-1.1,0-1.1,1v24.7a2.6,2.6,0,0,1-.7,2.1,3.7,3.7,0,0,1-2.4.6H293.6a2.5,2.5,0,0,1-1.9-.6,2.6,2.6,0,0,1-.5-1.8V139.7q0-2.2,1.8-2.2h32.8a42.3,42.3,0,0,1,15.7,2.7,24.4,24.4,0,0,1,11,8.2,22.1,22.1,0,0,1,4,13.5A23.2,23.2,0,0,1,352.9,174.9Zm-144-35.2a2.1,2.1,0,0,1,2.3-2.2h60.9a2.1,2.1,0,0,1,2.3,2.2v11q0,1.8-2.1,1.8H253.4q-1.1,0-1.1,1v58.9q0,2.1-1.9,2.1H233q-1.8,0-1.8-2V153.9a2.2,2.2,0,0,0-.2-1.1.9.9,0,0,0-.8-.3H211.1q-2.2,0-2.2-1.8Zm-70.2-1.6a1.6,1.6,0,0,1,1.3-.6h53.5q1.7,0,1.7,2v10.8q0,2.5-2.3,2.5H161.4a2.7,2.7,0,0,0-1.7.4,1.8,1.8,0,0,0-.5,1.5v12.7q0,2,1.7,2h20.6q2,0,2,1.9v11.3q0,1.6-1.8,1.6h-21q-1.6,0-1.6,1.5v26.4a2.6,2.6,0,0,1-.7,2.1,3.7,3.7,0,0,1-2.4.6H140.7a2,2,0,0,1-2.5-2.4V139.7A2.5,2.5,0,0,1,138.7,138.1Zm-40,14.4a19.3,19.3,0,0,0-8.7-1.6q-5.8,0-8.8,1.9a5.6,5.6,0,0,0-3,4.8,5.4,5.4,0,0,0,1.7,3.7q1.7,1.8,5.8,2.8l16.8,4.6q9.3,2.5,14,8.3a21.5,21.5,0,0,1,4.7,13.9,22.1,22.1,0,0,1-3.9,13,24.8,24.8,0,0,1-11.2,8.6,44.2,44.2,0,0,1-17,3,52.1,52.1,0,0,1-20-3.7q-9-3.7-12.7-9.9a4,4,0,0,1-.5-1.6,2.2,2.2,0,0,1,1.1-1.7l9.3-6.4a3.9,3.9,0,0,1,2-.7,2,2,0,0,1,1.7.8,24.1,24.1,0,0,0,7.5,6.7,21.7,21.7,0,0,0,10,2q6.3,0,10-1.9t3.7-5.4q0-4.8-7.6-6.8L78,182.9q-9.1-2.4-14.3-8.5a21.3,21.3,0,0,1-1.3-26.1,26,26,0,0,1,10.8-8.6,39.1,39.1,0,0,1,16.2-3.2,45.1,45.1,0,0,1,16.6,3q7.7,3,11.4,8a4.4,4.4,0,0,1,.7,1.8,1.7,1.7,0,0,1-.7,1.1l-10.2,7.4a1.3,1.3,0,0,1-.9.4q-.6,0-1.9-1.2A20.5,20.5,0,0,0,98.7,152.5Z"/>
  </g>
</svg>
