<svg width="66" height="39.18" id="Layer_1" data-name="Layer 1" xmlns="http://www.w3.org/2000/svg" viewBox="0 0 66 39.18"><defs><style>.cls-1{fill:#f6d038;}.cls-2{fill:#03363d;}</style></defs><title>logo-zendesk</title><path class="cls-1" d="M68.55,49a18.45,18.45,0,0,1-1.93,8.25H33.33A18.58,18.58,0,1,1,68.55,49Z" transform="translate(-17 -30.41)"/><g id="Group-32"><path id="Fill-1" class="cls-2" d="M51.42,68.65l.77-.43a1.16,1.16,0,0,0,1.05.58c.5,0,.75-.24.75-.52s-.48-.4-1-.51c-.68-.14-1.4-.35-1.4-1.18a1.39,1.39,0,0,1,1.55-1.22,1.83,1.83,0,0,1,1.64.78l-.72.39a1,1,0,0,0-.92-.45c-.47,0-.69.21-.69.48s.34.35,1,.48,1.42.37,1.44,1.2c0,.61-.54,1.28-1.65,1.28a1.84,1.84,0,0,1-1.8-.88" transform="translate(-17 -30.41)"/><path id="Fill-3" class="cls-2" d="M55.45,67.79V65.46h.87v2.25c0,.65.33,1.08,1,1.08a1,1,0,0,0,1-1.13v-2.2h.86v4h-.85v-.52a1.5,1.5,0,0,1-1.21.6,1.55,1.55,0,0,1-1.66-1.74" transform="translate(-17 -30.41)"/><path id="Fill-5" class="cls-2" d="M60,65.46h.84V66a1.6,1.6,0,0,1,2.85,1.13v2.33h-.86V67.18c0-.65-.32-1.07-1-1.07a1,1,0,0,0-1,1.14v2.2H60l0-4Z" transform="translate(-17 -30.41)"/><path id="Fill-7" class="cls-2" d="M64.22,68.62l.76-.43a1.14,1.14,0,0,0,1.06.58c.5,0,.75-.24.75-.52s-.48-.39-1-.51c-.68-.14-1.4-.35-1.4-1.18,0-.64.61-1.22,1.56-1.22a1.84,1.84,0,0,1,1.63.78l-.72.4a1,1,0,0,0-.91-.46c-.47,0-.69.22-.69.48s.33.36,1,.48,1.43.37,1.44,1.2c0,.61-.53,1.29-1.65,1.29a1.87,1.87,0,0,1-1.79-.89" transform="translate(-17 -30.41)"/><g id="Group-11"><path id="Fill-9" class="cls-2" d="M68.3,63.59h.84v2.35a1.53,1.53,0,0,1,1.23-.6A1.55,1.55,0,0,1,72,67.08v2.33h-.86V67.15c0-.66-.32-1.07-1-1.07a1,1,0,0,0-1,1.14v2.2H68.3Z" transform="translate(-17 -30.41)"/></g><path id="Fill-12" class="cls-2" d="M72.81,65.43h.86l0,4h-.86Zm.43-1.78a.58.58,0,0,1,0,1.16.57.57,0,0,1-.58-.58h0a.55.55,0,0,1,.53-.58Z" transform="translate(-17 -30.41)"/><path id="Fill-14" class="cls-2" d="M74.49,65.42h.85v.52a1.49,1.49,0,0,1,1.23-.61,1.55,1.55,0,0,1,1.62,1.74v2.32h-.86V67.14c0-.65-.33-1.08-1-1.08a1,1,0,0,0-1,1.15v2.2h-.86Z" transform="translate(-17 -30.41)"/><path id="Fill-16" class="cls-2" d="M79.73,67h2.4a1.11,1.11,0,0,0-1.19-.89,1.22,1.22,0,0,0-1.21.89m-.86.44a2,2,0,0,1,2-2.1h.06a2,2,0,0,1,2.06,2v.34H79.68a1.22,1.22,0,0,0,1.29,1A1.25,1.25,0,0,0,82.14,68l.7.4A2,2,0,0,1,81,69.46a2,2,0,0,1-2.11-2" transform="translate(-17 -30.41)"/><path id="Fill-18" class="cls-2" d="M38.47,67.12a1,1,0,0,0-1-.93,1.07,1.07,0,0,0-1.13,1Zm-1,1.62a1.49,1.49,0,0,0,1.1-.42l.55.59a2.14,2.14,0,0,1-1.63.65,2.08,2.08,0,1,1-.21-4.16h.07a2,2,0,0,1,2,2.4H36.27a1.17,1.17,0,0,0,1.24.94Z" transform="translate(-17 -30.41)"/><polygon id="Fill-20" class="cls-2" points="0 38.34 2.4 35.88 0.06 35.88 0.04 35.12 3.51 35.12 3.51 35.9 1.11 38.35 3.56 38.34 3.56 39.11 0 39.11 0 38.34"/><path id="Fill-22" class="cls-2" d="M24.2,67.15a1,1,0,0,0-1.06-.93,1.07,1.07,0,0,0-1.13.94Zm-.95,1.62a1.51,1.51,0,0,0,1.1-.42l.55.59a2.17,2.17,0,0,1-1.64.65,2.08,2.08,0,1,1-.21-4.16h.07a2,2,0,0,1,2,2.4H22a1.14,1.14,0,0,0,1.24.94Z" transform="translate(-17 -30.41)"/><path id="Fill-24" class="cls-2" d="M33.72,67.47a1.27,1.27,0,1,0-1.27,1.3,1.26,1.26,0,0,0,1.27-1.3m-3.37,0a2,2,0,0,1,2-2.07,1.7,1.7,0,0,1,1.33.59V63.65h.84l0,5.83h-.85v-.55a1.69,1.69,0,0,1-1.34.63,2,2,0,0,1-2-2.07" transform="translate(-17 -30.41)"/><path id="Fill-26" class="cls-2" d="M40,68.62l.77-.4a1.15,1.15,0,0,0,1,.58c.48,0,.74-.25.74-.52s-.47-.4-1-.49c-.67-.15-1.38-.37-1.39-1.19,0-.63.59-1.21,1.55-1.21a1.81,1.81,0,0,1,1.61.77l-.71.4a1,1,0,0,0-.9-.45c-.45,0-.69.22-.69.48s.37.36.94.49,1.4.35,1.41,1.18c0,.56-.47,1.3-1.62,1.29A1.94,1.94,0,0,1,40,68.62" transform="translate(-17 -30.41)"/><polygon id="Fill-28" class="cls-2" points="28.66 37.26 27.98 38.01 27.98 39.04 27.13 39.04 27.12 33.21 27.96 33.21 27.98 37.02 29.77 35.05 30.81 35.05 29.25 36.76 30.86 39.04 29.9 39.04 28.66 37.26"/><path id="Fill-30" class="cls-2" d="M27.76,65.42a1.72,1.72,0,0,0-1.84,1.74v2.33h.86V67.26a1,1,0,0,1,1-1.05c.64,0,1,.39,1,1v2.23h.86V67.15a1.7,1.7,0,0,0-1.85-1.73" transform="translate(-17 -30.41)"/></g></svg>